<?xml version="1.0" standalone="no"?>
<!DOCTYPE svg PUBLIC "-//W3C//DTD SVG 20010904//EN"
 "http://www.w3.org/TR/2001/REC-SVG-20010904/DTD/svg10.dtd">
<svg version="1.0" xmlns="http://www.w3.org/2000/svg"
 width="304.000000pt" height="304.000000pt" viewBox="0 0 304.000000 304.000000"
 preserveAspectRatio="xMidYMid meet">
<metadata>
Created by potrace 1.11, written by Peter Selinger 2001-2013
</metadata>
<g transform="translate(0.000000,304.000000) scale(0.100000,-0.100000)"
fill="#000000" stroke="none">
<path d="M1279 3020 c-554 -92 -1010 -474 -1192 -996 -57 -165 -80 -296 -82
-475 -2 -86 1 -180 6 -210 5 -30 11 -72 15 -94 31 -209 156 -485 303 -670 69
-86 187 -201 276 -268 l50 -38 7 43 c3 24 9 171 13 328 6 251 5 292 -10 345
-9 33 -20 74 -23 90 -10 42 -34 75 -55 75 -16 0 -17 7 -11 67 4 38 12 77 18
88 13 24 15 97 2 107 -12 8 28 90 55 114 11 10 19 23 19 29 0 7 7 19 16 26 9
8 40 45 69 84 65 87 110 129 154 144 19 6 87 11 152 11 113 0 139 -3 269 -35
127 -31 150 -30 225 9 38 20 81 36 96 36 15 0 32 7 39 15 7 8 29 15 50 15 55
0 64 17 72 139 4 58 10 133 14 166 l5 60 -84 92 c-102 110 -118 140 -120 230
-2 82 10 87 52 22 27 -43 146 -155 189 -178 15 -8 24 -5 46 18 22 23 27 39 29
84 2 62 -12 85 -70 112 -45 22 -31 38 33 38 41 0 51 -4 81 -36 30 -33 33 -43
33 -95 0 -75 24 -102 90 -102 36 0 49 6 85 39 88 81 184 107 286 78 30 -9 70
-30 89 -47 l35 -31 -102 6 c-93 6 -107 5 -147 -16 -25 -12 -58 -36 -75 -53
-42 -43 -32 -89 26 -128 59 -40 246 -75 318 -61 27 6 54 7 59 3 4 -4 -18 -28
-49 -53 -65 -51 -92 -57 -249 -57 -101 0 -103 0 -134 -31 -23 -23 -32 -40 -32
-65 0 -18 -6 -53 -14 -76 -31 -94 -58 -284 -52 -359 21 -258 15 -426 -16 -445
-4 -3 -8 -15 -8 -28 0 -12 -4 -26 -8 -32 -5 -5 -14 -28 -21 -52 -10 -37 -9
-48 8 -87 11 -25 16 -45 10 -45 -5 0 -9 -21 -9 -46 0 -25 -4 -43 -9 -40 -15
10 -24 -107 -11 -153 6 -23 12 -99 14 -169 5 -150 12 -211 34 -272 8 -25 17
-47 18 -49 6 -7 173 90 248 143 286 206 500 517 586 851 39 154 49 246 45 425
-4 172 -25 296 -75 445 -177 524 -629 913 -1173 1011 -134 24 -376 26 -508 4z"/>
<path d="M921 837 c-1 -14 -6 -17 -22 -12 -19 6 -21 4 -18 -37 1 -23 -1 -51
-6 -62 -5 -11 -4 -26 4 -37 7 -13 8 -19 0 -19 -6 0 -8 -8 -4 -20 5 -16 2 -20
-14 -20 -12 0 -21 -7 -21 -15 0 -8 -7 -15 -15 -15 -9 0 -15 -9 -15 -25 0 -15
-7 -40 -16 -58 -15 -28 -32 -152 -37 -272 l-2 -40 95 -47 c52 -26 113 -54 136
-62 l41 -14 -5 27 c-3 14 -8 31 -12 36 -21 29 -43 159 -45 265 -1 83 -6 125
-18 152 -21 45 -22 76 -3 97 16 20 36 77 36 105 0 12 -8 29 -17 37 -10 9 -23
25 -30 35 -11 18 -12 18 -12 1z"/>
<path d="M1656 774 c-19 -19 -21 -77 -5 -194 11 -82 9 -102 -22 -190 -5 -14
-10 -91 -11 -171 -2 -141 -2 -147 22 -178 24 -30 28 -31 75 -26 63 6 106 14
175 30 3 1 32 9 65 19 l60 17 -7 97 c-10 144 -25 232 -42 251 -9 10 -16 30
-16 46 0 16 -8 37 -17 48 -10 10 -19 33 -19 51 -2 48 -34 147 -50 153 -8 3
-14 13 -14 22 0 14 -2 14 -10 1 -7 -12 -13 -10 -32 12 -14 17 -31 26 -43 23
-11 -2 -23 -4 -27 -4 -5 -1 -8 -8 -8 -16 0 -21 -18 -19 -32 5 -15 24 -22 25
-42 4z"/>
<path d="M1364 672 c-10 -15 -20 -17 -60 -13 -63 8 -154 -35 -167 -77 -31
-101 19 -432 75 -500 7 -8 17 -24 23 -35 11 -22 39 -30 140 -40 l51 -5 17 59
c20 67 23 244 6 283 -10 20 -8 29 8 53 17 24 19 40 16 123 -4 91 -6 96 -35
122 -17 14 -36 24 -43 21 -7 -2 -15 3 -17 12 -3 14 -5 13 -14 -3z"/>
</g>
</svg>
